<?xml version="1.0" standalone="no"?>
<!DOCTYPE svg PUBLIC "-//W3C//DTD SVG 20010904//EN"
 "http://www.w3.org/TR/2001/REC-SVG-20010904/DTD/svg10.dtd">
<svg version="1.0" xmlns="http://www.w3.org/2000/svg"
 width="512.000000pt" height="512.000000pt" viewBox="0 0 512.000000 512.000000"
 preserveAspectRatio="xMidYMid meet">
<metadata>
Created by potrace 1.11, written by Peter Selinger 2001-2013
</metadata>
<g transform="translate(0.000000,512.000000) scale(0.100000,-0.100000)"
fill="#000000" stroke="none">
<path d="M0 2560 l0 -2560 2560 0 2560 0 0 2560 0 2560 -2560 0 -2560 0 0
-2560z m1399 1254 c454 -66 778 -348 905 -786 44 -154 59 -291 53 -488 -8
-250 -45 -407 -143 -605 -172 -351 -477 -568 -889 -632 -159 -24 -555 -10
-877 33 l-48 7 0 1213 c0 1146 1 1213 18 1218 23 7 291 35 422 45 187 14 445
12 559 -5z m1685 -191 c267 -811 444 -1368 502 -1580 38 -139 72 -253 76 -253
3 0 21 48 40 108 19 59 164 509 323 1000 l288 892 205 0 204 0 -6 -37 c-17
-95 -72 -258 -435 -1298 l-388 -1110 -31 -6 c-17 -3 -122 -8 -234 -10 l-203
-4 -368 1095 c-202 602 -381 1134 -397 1181 -16 47 -32 109 -36 137 l-7 52
206 0 205 0 56 -167z"/>
<path d="M1010 3464 c-30 -2 -88 -6 -127 -10 l-73 -6 0 -889 0 -889 28 -7 c15
-3 113 -6 217 -7 267 0 392 31 531 130 214 152 335 404 351 729 10 212 -26
404 -104 565 -39 79 -61 109 -132 180 -98 98 -185 147 -316 180 -80 21 -259
32 -375 24z"/>
</g>
</svg>
